				<svg width="100" height="100" xmlns="http://www.w3.org/2000/svg">
					<g>
						<path
							stroke="null"
							stroke-dasharray="5,2,2,2,2,2"
							fill="#ffffff"
							d="m22.79843,45.4245q-0.08605,0 -0.08605,0.04272q-0.04131,0.04101 -0.04131,0.08544q0.04131,-0.04443 0.12735,-0.08544l0,-0.04272l0.00001,0zm37.60879,31.49123q0,0.21187 0.29945,0.42375q0.2547,0.21187 0.2547,0.42375q0.2134,0.08544 0.2134,0.12645q0,0.04272 -0.12735,0q-0.34076,-0.04272 -0.25643,-0.33832q-0.34076,0.16917 -0.38378,0.42375q-0.1721,-0.04272 -0.12735,-0.12816q0,-0.08544 0.12735,-0.08544q-0.1721,-0.55021 0,-1.05939q0.25643,0.17087 0,0.21359l0,0.00001l0.00001,0l0,0.00002zm0.72626,8.6887q-0.46983,0.12645 -1.66592,-0.04272q-1.06701,-0.17087 -1.79327,0.21187q0,-0.25459 -0.51113,-0.55191q-0.34247,-0.21187 -0.08605,-0.50749q-0.98097,0.55021 -0.2134,1.35671q1.11004,1.18583 1.15306,1.60959l-0.51285,-0.46647q-0.2134,-0.16917 -0.64021,0.04272q0.1721,-0.21187 0.12907,-0.42375q-0.08605,-0.21187 0.08605,-0.42375q0.16866,0.04272 -1.32516,-0.84751q-0.93794,-0.55191 -0.81059,0.42375q-0.25643,-0.46647 -0.81059,-0.50919q-0.59891,-0.04101 -0.72626,-0.12645q-0.12735,0.12645 -0.34076,0.25459q-0.1721,0.12645 -0.2134,0.16917q-0.12907,0.12645 0.17038,0.84751q0.2134,-0.12645 0.17038,-0.29731q-0.1721,-0.38104 -0.1721,-0.33832q0.42852,0.29731 0.3855,0.42375q0,-0.33832 0.25643,-0.38104q0.25643,-0.04272 0.51113,0.38104q0.46983,-0.29731 0.89663,-0.25459q0.3855,0.08544 0.85361,-0.38104q0,0.29731 0.59891,0.93295q0.38378,0.42375 -0.2134,0.33832q0.17038,0.67835 0.76756,0.84751q0.2134,-0.04272 0.08605,-0.25459q-0.12907,-0.21187 0.08605,-0.38104q0.21168,0.04272 0.38378,0.34003q0.2134,0.25289 0.38378,0.2956q-0.04302,0.21187 -0.1721,0.08544q-0.17038,-0.08544 -0.21168,-0.29731q-0.08605,0.04272 -0.25815,0.21187q-0.16866,0.17087 -0.29773,0.21187q-0.42681,-0.08544 -1.36646,-1.27127q-0.12735,0.08544 -0.64021,0.08544q-0.2547,0 -0.29773,0.55021q-0.2134,-0.04272 -0.3855,-0.33832q-0.2134,-0.25631 -0.38378,-0.29731q0.04302,0.25459 0.38378,0.50919q0.29945,0.2956 0.3855,0.55021q-0.42681,-0.2956 -0.3855,-0.42375q0.42852,-0.08544 0.1721,0.63563q0.04302,0.38104 -0.34247,-0.16917q-0.34076,-0.55021 -0.04302,-0.46647q0,-0.12645 -0.2134,-0.21187q-0.17038,-0.08544 -0.17038,-0.21187q-0.38378,0.12645 -0.38378,0.63563q-0.08605,-0.08544 -0.29945,-0.25459q-0.2134,-0.21187 -0.29773,-0.25459q-0.29945,-0.21187 -0.55588,0.29731q-0.04302,-0.67835 0,-0.55021q-0.04302,-0.12816 -0.55415,0.08544q0,0.25289 0.25643,0.42205q0.2547,0.21187 0.29773,0.42375q0.64021,-0.25289 0.76928,-0.25289q0.29773,0 0.38378,0.71936q-0.08605,0 -0.1721,-0.42375q-0.12735,0.04272 -0.2547,0.29731q-0.08605,0.12645 -0.34076,-0.08544q0.04131,0.38104 0.29773,0.29731q0.25643,-0.08544 0.29945,0.12645q0.2134,0 0.29773,-0.2956q0.08605,-0.34003 0.25815,-0.34003q-0.12907,-0.04272 0.98097,1.05939q0.04302,-0.04272 0.17038,-0.12645q0.08605,-0.08544 0.2134,-0.08544q-0.04302,-0.16917 -0.12735,-0.12645q-0.08605,0 -0.08605,0.12645q0.42681,0.12816 0.38378,-1.27127q0.46983,0 0.59718,0.42375q-0.42681,0.08544 -0.2134,-0.63563q-0.04131,-0.17087 0.1721,0.04272l0.34076,0.42375q0.46983,0.67835 -0.51285,0.17087q0,0.16745 0.12907,0.42205q0.08605,0.21187 0.08605,0.42375q0.46811,0.34003 -0.76928,0.42375q0.12735,0.42375 0.55415,0.42375q-0.04131,0.34003 -0.42681,0.21187q-0.42681,-0.16917 -0.34076,-0.42375q-0.38378,0.12816 -0.38378,0.63563q0.08605,0 0.2134,-0.42375q0.34076,0.21187 -0.04302,0.55191l-0.55588,0.50749q-0.17038,-0.04101 -0.12735,-0.12645q0.04302,-0.08544 0.12735,-0.08544q-0.68151,-1.3977 -1.75025,-1.1004q-0.04131,0.21187 0.21513,0.21187q-0.1721,0.25289 -0.59891,0.42375l0.76928,0.63563q0.04302,0.33832 -0.25815,0.08544q-0.29773,-0.25631 -0.29773,0.12645q-0.34076,-0.12816 -0.34076,-0.46647q0,-0.38104 -0.25643,-0.59291q-0.25643,0.25289 -0.04302,0.63563q0.38378,0.59291 0.42681,0.84751q-0.25643,-0.29731 -0.34076,0.04272q-0.12907,0.2956 -0.04302,0.38104q-0.08605,0.38104 -0.29945,-0.04272q-0.08605,-0.08544 -0.17038,-0.33832q-0.08605,-0.21187 -0.08605,-0.25631q-0.2547,0.12816 0,0.55191q0.29945,0.42375 0.55588,0.50919q-0.04302,0.42375 -0.51285,0.04272q-0.17038,-0.17087 -0.04131,-0.04272q-0.04302,0.12645 -0.21513,0.21187q-0.2134,0.08544 -0.2134,0.21187q-0.46811,-0.17087 -0.2134,-0.46647q0.42681,-0.55021 0.42681,-0.59291q-1.02399,0.67835 -0.59718,0.84751q-0.51113,0.46647 -0.46983,-0.21187q0.04302,-0.72106 0.51285,-0.84751q-0.04302,-0.21187 -0.38378,-0.46647q-0.25643,-0.21187 -0.2134,-0.59291q0.55415,-0.04272 0.29773,-0.46647q-0.42681,-0.72106 -0.29773,-1.23026q0.2134,-0.16917 0.38378,-0.08544q0.2134,0.08544 0.38378,-0.12645q0,-0.16917 -0.08605,-0.12645q-0.08433,0.04272 -0.08433,0.12645q-0.08605,0 -0.1721,-0.21187q-0.08433,-0.21187 -0.21168,-0.21187q-0.55588,0.04272 0.2134,-1.05939q-0.04302,0.42375 0.51113,0.93295q0.59891,0.55021 1.02571,-0.08544q-0.04302,-0.04101 -0.12907,-0.16917q-0.08605,-0.12645 -0.08605,-0.25459q-0.16866,0 -0.34076,0.29731q-0.12735,0.21187 -0.42681,0.12645q0.25815,-0.38104 0,-0.42375q0,-0.08544 0.3855,-0.21187q-0.04302,-0.04272 -0.59891,-0.16917q-0.34076,-0.04272 -0.34076,-0.67835q0.17038,-0.04272 0.17038,0.21187q0.2134,-0.16917 0.38378,-0.63563q0.72626,0.04272 0.76928,0.84751q0.08605,0 0.17038,-0.21187q0.08605,-0.16917 0.2134,-0.16917l-0.76756,-1.05939q-0.42852,-0.55191 -0.76928,-0.25459q-0.08605,0 -0.1721,-0.21187q-0.08433,-0.21187 -0.21168,-0.21187q-0.25643,0.25459 4.05465,0.04272q2.86028,-0.17087 4.22675,0.84751q0,-0.17087 -0.2134,-0.34003q-0.25643,-0.16917 -0.1721,-0.50749q-0.34076,0.33832 -0.55415,-0.08544q-0.34076,-0.67835 -0.2134,-0.55021q0.08605,0 1.45251,0.80479q0.93794,0.50919 0.42681,-0.38104q-0.08605,0 -0.12907,-0.04272q-0.2134,-0.12645 0,-0.12645l0,-0.04272l0,0.04272q0.89663,0 0.93966,1.01667q0.08605,0 0.2134,-0.08544q0.08605,-0.08544 0.1721,-0.08544q0,-0.16917 -0.08605,-0.16917q-0.08605,0.04272 -0.08605,0.17087q-0.08605,-0.04272 -0.1721,-0.25631q-0.08433,-0.16745 -0.21168,-0.21017q0.38378,-0.34003 0.76756,0.25459q0.55588,0.80309 0.76928,0.84751l0.00001,-0.00001l-0.00001,0.00002l-0.00001,0.00005zm0,2.28964q-0.2134,0.25289 -0.76928,0q-0.51285,0.93124 0,0.84581q-0.12735,0.21187 -0.12735,-0.04272q0.04302,-0.50749 -0.25815,-0.59291q0,-0.08544 0.3855,-0.21187q-0.25643,-0.38104 0,-0.42375q-0.98097,-1.52586 -0.98097,-1.27127q-0.2134,0.25459 -0.3855,0.12645q-0.29773,-0.2956 -0.38378,-0.33832q-0.2134,-0.08544 -0.1721,-0.12645q0.04474,-0.08544 0.21513,-0.04272q0.46983,0.08544 0.34076,0.38104q0.2134,-0.04272 0.08605,-0.21187q-0.08605,-0.17087 -0.25643,-0.21187q0.2134,-0.12645 1.06701,1.01667q0.76928,1.01839 1.02571,0.50919q0.38378,0 0.12735,0.33832q-0.2134,0.29731 0.08605,0.25631l0.00001,0l-0.00001,0.00001l0,-0.00003zm-1.92234,-0.21359q-0.80886,-0.04272 -1.15306,-1.48314q0.3442,-0.25459 0.76928,0.25459q0.46983,0.55021 0.76928,0.38104l-0.2134,0.42375q-0.12907,0.29731 -0.1721,0.42375l0.00001,0.00001l-0.00001,0zm-2.51781,-2.11878q-0.25643,-0.63563 0.59718,-0.08544q0.76928,0.55191 0.76928,1.14482q-0.1721,-0.08544 -0.34247,-0.46647q-0.2134,-0.33832 -0.42681,-0.38104q0.64021,1.14482 0.51285,0.97395q-0.76928,-1.14482 -1.11004,-1.18583l0,-0.00001l0.00001,0.00001zm1.70722,4.23755q-0.25643,-0.12645 -0.64021,-0.63563q-0.42681,-0.50749 -0.68323,-0.63563q0.12907,-0.2956 0.46983,0.04272q0.12735,0.12645 0.29945,0.33832q0.17038,0.21359 0.17038,0.25631q-0.08605,-0.46818 0.04302,-0.42547q0.34076,0.17087 0.72454,-0.21187l0.2134,0.42375q0,0.25631 -0.34076,0.38275q-0.34076,0.12645 -0.25643,0.46477l0.00001,-0.00001l-0.00001,0.00001l0.00001,0zm-2.30612,0q-0.12735,-0.04101 -0.2547,-0.21187q-0.1721,-0.21187 -0.29945,-0.21187q0.42681,-1.05939 1.11004,-0.80479l0.04302,-0.04272q0.04302,0.04272 0.04302,0.08544q-0.04302,0 -0.08605,-0.04272q-0.29773,0.29731 0.08605,0.72106q0.38378,0.38104 0.72454,0.2956q0.1721,-0.2956 0.12907,-0.2956q-0.04302,0 0.42681,0.2956q-0.12907,0.29731 -0.93966,0.08544q-0.76756,-0.21187 -0.98097,0.12645l-0.00172,0l0.00001,0l-0.00001,0l0,-0.00001zm-4.95129,-6.99197q-0.72454,-0.46647 -0.42681,-0.55191q0.25815,-0.04272 0.59891,0.55191q-0.42681,0.08544 -0.1721,-0.63563q0.29945,0.42375 0.76928,0.63563q-0.46983,0.38104 -1.23911,0q-0.72454,-0.34003 -1.28042,-1.10211q0.34247,-0.25631 0.76928,0.38104q0.51113,0.76208 0.98097,0.72106l0,0.00001l0.00001,0l-0.00001,0zm-2.68819,-5.72242q-0.1721,-0.21187 -0.46983,-0.08544q-0.29945,0.08544 -0.51285,-0.16917q0.04302,-0.12645 0.12907,-0.12645q0.08605,0.04272 0.08605,0.16917q0.12735,-0.04272 0.21168,-0.63563q-0.42681,0.17087 -0.59718,0.59291q-0.12735,-0.04272 0.38378,1.05939q-0.1721,0.04272 -0.2134,-0.21187q-0.2134,0.21187 -0.38378,0.63563q-0.12907,-0.04101 -0.08605,-0.12645q0.08605,-0.21187 0.08605,-0.29731q-0.34247,0.12816 -0.29945,0.29731q0,0.04272 0.04302,0.25459q0.08605,0.16917 0.08605,0.2956q-0.93966,-1.31399 -0.98097,-1.05939q0.51113,-0.33832 0.63849,-0.76208q0.04302,-0.17087 0.72626,-0.08544q-0.34247,-0.08544 -0.29945,-0.25459q0,-0.04101 0.04302,-0.25459l0.08605,-0.33832q0.17038,0 0.17038,0.25459q0.12735,-0.25459 0.42681,-0.34003q0.2134,-0.08544 0.34076,-0.50749q0.08605,0 0.1721,0.08544q0.12735,0.12645 0.2134,0.12645q-0.1721,-0.29731 0.59718,-0.55191q0.89491,-0.2956 0.93966,-0.93124q0.29773,0.21187 0.85361,0.16917q0.55415,-0.04272 0.34076,-0.38104q0.29945,-0.38275 0.38378,0.21187q0.55588,-0.42375 0.68323,-0.46647q0.46983,-0.08544 1.02571,0.46647q0,-0.21187 -0.34247,-0.46647q-0.25643,-0.21187 -0.2134,-0.59291q0.42681,0.38104 0.55588,-0.21187q0.17038,0.04101 0.08605,0.25289q-0.08605,0.17087 0.12735,0.17087q-0.04302,0.16917 -0.1721,0.12645q-0.12735,-0.12645 -0.2134,-0.12645q-0.04131,0.55021 0.51285,0.80309q0.59718,0.29731 0.64021,0.68006q0.12735,0 0.29945,-0.34003q0.12735,-0.33832 -0.12907,-0.2956q0.04302,-0.34003 0.34247,0q0.29773,0.33832 0.25643,0.63563q-0.08605,0 -0.2134,-0.42375q-0.1721,0.04101 -0.29945,0.42375q-0.08605,0.42375 -0.25643,0.42375q0.55588,0.76208 0.55588,0.88852q0,0.08544 -0.59891,0.17087q0.08605,-0.50919 -0.17038,-1.69503q-0.25643,0.2956 -0.64021,0.33832q-0.38378,0.08544 -0.72626,0.29731q0.89663,0.97395 0.89663,0.88852q0,-0.04101 -0.89491,0.17087q0.04131,-0.17087 0,-0.55191q-0.04474,-0.42375 0.04131,-0.71936q-0.29945,0.16917 -0.89491,0.08544q-0.29945,-0.08544 -0.08605,0.55021q-0.51285,-0.46647 -1.36646,-0.21187q0,0.16917 0.25643,0.38104q0.2134,0.12645 0.12735,0.46647q-0.1721,-0.34003 -0.55415,-0.34003q-0.29945,0 -0.3855,0.12816q-0.2547,0.25459 -0.68151,0.38104q-0.34247,0.12816 -0.68323,0.67835l0.00001,0l-0.00003,0.00001l-0.00001,0zm-1.40949,14.79216q0.29945,0.12645 -0.76756,-1.27127q-0.29945,0.63563 0.93794,0.63563q-0.55415,-0.84751 -1.79155,-2.1615q-1.32516,-1.39943 -1.83629,-2.07777q-0.25643,0.17087 0.1721,0.46647q0.51113,0.42375 0.38206,0.80479q-0.17038,-0.2956 -0.42681,-0.33832q-0.29773,-0.08544 -0.51113,-0.29731q0.2134,-0.67835 0,-0.84751q0.34076,-0.16917 1.36475,1.05939q0.93966,1.14482 1.32516,0.63563q-0.21513,0.67835 0.85189,1.56858q0.98269,0.84751 0.29945,1.82318l-0.00001,0.00001l0.00001,0.00001l-0.00001,-0.00002zm-1.75025,-2.11878q-0.04302,0.33832 -0.34076,-0.21187q-0.29945,-0.50919 -0.04302,-0.63735l-0.38378,0q0.38378,-0.33832 0.98097,0.46647q0.59718,0.8065 0.38378,1.23026q-0.2547,-0.17087 -0.38378,-0.67835q-0.08605,-0.55191 -0.38378,-0.80479q0.42681,-0.08544 0.1721,0.63563l-0.00172,0l-0.00001,0.00001l0,-0.00001zm-1.70722,-0.84922q0.93966,0.04272 2.86028,2.968q-0.46983,-0.42375 -1.40949,-1.52586q-0.89491,-1.01667 -1.45079,-1.44214l0,0.00001zm0.38378,0.63735q-0.12735,0.12645 -0.59718,-0.04272q0.1721,0.2956 0.12735,0.67835q-0.04302,0.33832 0.08605,0.38104q0.04302,-0.12816 -0.59718,0q0.51113,-1.44042 0.2134,-1.69503q0.17038,-0.50919 0.76756,0.67835l0.00001,0.00001l-0.00001,0l0,-0.00001zm-0.38378,-4.23755q-0.08605,0 -0.08605,0.37933q0,0.29731 -0.46983,0.25631q-0.34076,0.33832 -0.59718,-1.27297q0.1721,0.33832 0.72626,0q0.51285,-0.33832 -0.12907,-0.84751q0.08605,-0.38104 0.3855,-0.17087q0.25643,0.21359 0.12735,0.46818q-0.12735,0.08544 0.64021,0.33832q-0.34076,-0.67835 -0.98097,-1.05939q0.38378,-0.38104 0.76756,0.29731q0.42681,0.80309 0.76928,0.76208q0.12735,-0.04272 0.12735,-0.63563q-0.04302,-0.34003 0.25643,0.21187q0.29945,-0.04272 0.08605,-0.33832q-0.25815,-0.21359 -0.42852,-0.29731q0.12907,-0.04272 1.02571,1.10211q0.04302,-0.04272 0.08605,-0.04272q0,0.17087 -0.08605,0.04272q-0.08605,0.08544 -0.04302,0.25459q0.04302,0.12645 0.12735,0.12645q-0.12735,0.29731 -0.38378,-0.17087q-0.34076,-0.63392 -0.38378,-0.67664q0.42681,0.63563 -0.2134,0.67835q-0.64021,0 -1.11004,-0.46647q-0.08605,0 -0.1721,0.12645q-0.12735,0.08544 -0.21168,0.08544q0.25643,0.80479 1.32344,1.82318q1.06701,1.01667 1.36475,1.77874q-0.98097,-0.88852 -2.51781,-2.75441l0,0.00171l-0.00001,-0.00002l0,-0.00001zm1.75025,1.05939q-0.04302,0.33832 -0.38378,-0.21359q-0.29945,-0.50749 0,-0.63563l-0.3855,0q0.25815,-0.55021 0.93966,0.63563q-0.38378,-0.2956 -0.38378,-0.42375q0.46983,-0.08544 0.2134,0.63563l0,0.00171l-0.00001,0.00001l0,-0.00001l0.00001,-0.00001zm1.92062,3.17817q-0.04302,0.16917 -0.2134,0.08544q-0.1721,-0.08544 -0.2134,0.12645q-0.34076,-0.08544 -0.42681,-0.42375q-0.08605,-0.38275 -0.12735,-0.42547q-0.29945,0.63735 0.98097,0.63735l-0.00001,-0.00001zm-0.76756,-1.69673q-0.04302,0.42375 0.38378,0.72106q0.38378,0.33832 0.38378,0.76378q-0.25643,-0.08544 -0.51285,-0.42547q-0.2547,-0.33832 -0.46811,-0.42375q0.38378,-1.18583 0.04131,-1.82146q-0.08605,-0.12816 -1.57815,-1.56858q0.29773,-0.29731 0.76756,0.29731q0.51285,0.71936 0.76928,0.76208q0.2134,-0.04272 0.12735,-0.25459q-0.12735,-0.21187 0.08605,-0.38104q-0.3855,1.31569 0.55415,2.33066q-0.38378,-0.2956 -0.38378,-0.42375q-0.12907,0.04272 0.08605,0.59463q0.12735,0.2956 -0.25815,-0.17087l0.00172,0l0.00001,0l0,-0.00001zm0.42681,-8.90058q-0.08605,0.17087 -0.29945,0.12816q-0.25643,-0.04272 -0.46983,0.08544q-0.25643,-0.21359 -0.25643,-0.46647q-0.04131,-0.29731 -0.12735,-0.38275q-0.1721,0.29731 1.15306,0.63563l0,-0.00001zm8.45178,-1.22855q0,0.17087 -0.1721,0.08544q-0.16866,-0.08544 -0.21168,0.12645q-0.93966,0.17087 -0.76928,-0.42375q-0.12735,-0.04272 -0.04302,-0.21187q0.04302,-0.17087 -0.12735,-0.21187q0.04302,-0.38104 0.29945,0t0.25643,0q0.2134,0.04272 0.38378,0.33832q0.2134,0.29731 0.38378,0.29731l-0.00001,0l0.00001,0l-0.00001,-0.00002zm0.64021,-5.46781q0.08605,0.38104 0.72626,0q0.81059,-0.50749 1.19437,-0.42375q0,0.21187 0.34247,0.46647q0.25643,0.21187 0.2134,0.59291q-0.42681,-0.42375 -1.11004,-0.04101q-0.89663,0.46477 -1.02399,0.46477q-0.21513,-0.80309 -0.93966,-0.42375q-0.29945,-0.16917 0.12735,-0.25459q0.55588,-0.12645 0.46983,-0.38104l0.00001,-0.00001l0,-0.00001l0,0.00001zm0.59718,-8.47513q0.1721,0.04101 0.2134,-0.21359q-0.29773,-0.04272 -0.2134,0.84751q-0.93794,0.17087 -0.76756,-0.42375q-0.1721,-0.04101 -0.12907,-0.12645q0.04302,-0.08544 0.12907,-0.08544q0,-0.08544 -0.38378,-0.21187q0.59718,-0.46647 1.15306,0.21187l-0.00172,0.00171zm1.53684,0.42205q-0.04302,0.17087 -0.12735,0.12816q-0.04302,0 -0.04302,-0.12816q-0.38378,0.25631 -0.38378,0q-0.1721,-0.04101 -0.2134,0.21187q-0.12907,0 -0.12907,-0.12645q0.04302,-0.08544 0.12907,-0.08544q-0.25643,-0.38104 0,-0.42375q0.04302,-0.16917 -0.1721,-0.21187q-0.29773,0.63563 0.93966,0.63563l-0.00001,0zm0.42681,-15.80883q0.29945,0.04272 0.59891,0.04272q0.42681,0.50919 0.59718,0.55021q-0.04302,0.17087 -0.2134,0.08544q-0.1721,-0.08544 -0.1721,0.12645q-0.04131,-0.08544 -0.08433,-0.21187q-0.04302,-0.21187 -0.08605,-0.25289q-0.12735,-0.21187 -0.59718,0.04101q0.25643,1.14482 0.38378,0.84922q-0.08605,0 -0.2134,-0.42547q-0.34076,0.17087 -0.38378,0.42547q0.08605,0.08544 0.1721,-1.23026l-0.00172,0l-0.00001,-0.00001zm0.29945,30.43183q0.1721,0.04272 0.1721,-0.21187q0.12735,0.04272 0.29773,0.21187q0.12735,0.17087 0.29773,0.21187q0,0.17087 -0.2134,0.21187q-0.04131,0.17087 0.1721,0.21187q-0.04302,0.21187 -0.3855,0.08544q-0.29773,-0.08544 -0.38378,0.12645q-0.12735,-0.04272 -0.12735,-0.33832q0,-0.25631 0.12735,-0.29731q0.04302,-0.21187 -0.17038,-0.21187q0.04302,-0.17087 0.12735,-0.17087q0.08605,0.04443 0.08605,0.17087l-0.00001,0l-0.00001,-0.00001l0.00002,0.00001zm0.34076,-1.27127l0.04302,0q0,-0.04272 0,0q0.08605,0.12645 0.1721,0.21187q-0.21513,-0.08544 -0.1721,-0.21187l-0.04302,0q-0.55415,0.21187 -0.34076,0.21187q0,-0.46647 -0.2134,-1.69503q0.29945,0.25289 0.34076,0.76208q0.04302,0.50919 0.2134,0.72106l0,0.00001zm0.42681,-1.48314q0.29945,-0.63563 -0.98097,-0.63563q0.04302,-0.46647 0.46983,-0.38275q0.42681,0.04272 0.29773,0.59463q-0.59718,-0.59463 -0.42681,-0.21187q0.1721,0.38104 0.64021,0.63563l0,0.00001l0.00001,-0.00001zm-0.80886,5.29695q-0.12907,-0.04272 -0.12907,-0.12645q0.04302,-0.08544 0.12735,-0.08544q-0.17038,-0.25459 -0.55415,-0.42375q0.29773,-0.50749 0.68323,-0.38104q0.08605,0.04272 0.38378,0.17087q0.25643,0.12645 0.46983,0.21017q-0.04302,0.59291 -0.42681,0.55191q-0.46983,-0.08544 -0.55588,0.08544l0.00172,-0.00171l0,-0.00001l0,0.00001zm-0.55588,-2.54254q-0.29945,-0.04272 -0.2134,0.84751q-0.93966,0.12645 -0.76928,-0.46647q-0.2134,-0.16917 0,-0.80479l0.76928,0.63563q0.17038,0.04272 0.2134,-0.21187l0,-0.00001zm-0.1721,-0.84751q-0.17038,-0.25459 -0.38378,-0.12816q-0.17038,0.12816 -0.2134,-0.08544q-0.38378,0.25631 -0.29773,-0.08373q0.08605,-0.50749 -0.08605,-0.55021q0.04302,-0.17087 0.12735,-0.17087q0.08605,0.04272 0.08605,0.17087q0.25643,-0.38104 0.72626,0.04272q0.42681,0.38104 0.04302,0.80309l-0.00172,0.00171l0.00001,0.00001l-0.00001,0zm-0.98097,2.07607q0,-0.2956 0.38378,0q0.38378,0.34003 0.38378,0.04272q0.12907,0 0.12907,0.08544q-0.04302,0.12645 -0.12907,0.08544q0,0.21017 0.34247,0.50749q0.25643,0.21187 0.2134,0.59291q-0.42681,-0.42375 -0.46983,-0.25459q-0.08605,0.21187 -0.46983,-0.21187q0.25815,0.46647 -0.12735,0.38275q-0.38378,-0.08544 -0.25643,-0.38275q0.12735,-0.55021 0.55415,-0.21187q-0.12735,-0.42375 -0.55415,-0.63563l-0.00001,-0.00001l0.00001,0l0.00001,-0.00001zm-1.36646,0.21187q0.64021,0.50919 0.59891,0.84751q-0.04302,0.29731 -0.59891,0.21187q-0.2134,-0.21187 -0.2134,-0.50749q0,-0.29731 0.42681,0.2956q0.08605,0.04272 -0.42681,-0.67664q-0.42681,-0.63735 0.2134,-0.17087l0,0.00001zm1.15306,1.05939q-0.29945,-0.12645 -0.68323,-0.63563q-0.38378,-0.46477 -0.64021,-0.63563q0.29945,-0.25459 0.76928,0.25631q0.42681,0.46477 0.55415,1.01496l0.00001,-0.00001l0,0.00001zm-0.55415,-5.67799q-0.12907,-0.04272 -0.25815,-0.25631q-0.17038,-0.16745 -0.29773,-0.21017q0,0.25459 0.25643,0.42375q0.29945,0.21187 0.29945,0.46647q0,0.12645 -0.46983,-0.29731q-0.42681,-0.42375 -0.29945,-0.80479q0.04302,-0.25631 0.42681,0.04272q0.38378,0.2956 0.34247,0.63563l0,0.00001l0.00001,0.00001l-0.00001,-0.00001zm-1.96537,6.52721q0.08605,-0.12816 0.76928,0.21187q0.55415,0.2956 0.38378,-0.21187q-0.17038,0.59291 0.76928,0.42375q-0.51285,1.10211 -1.92234,-0.42375zm-1.53513,-0.21187q-0.08605,-0.12816 0.08605,0q0.46811,0.42375 0.51113,0q0.34076,0.08544 0.29773,0.33832q-0.08605,0.33832 0.08605,0.50919q0.12735,-0.04272 0.12735,-0.12816q-0.04131,-0.08544 -0.12735,-0.08544q0,-0.04101 0.25643,-0.25289q0.12735,-0.12816 -0.08605,-0.17087q-0.29773,0.63735 0.98097,0.63735q-0.04131,0.21187 -0.46811,0.08544q-0.34247,-0.12816 -0.29945,0.33832q-0.89491,-0.55191 -1.15306,0q-0.04131,-0.04272 -0.2547,-0.29731q-0.08605,-0.12645 -0.12907,0.08544q-0.29773,0.12645 0.04302,-0.34003q0.46983,-0.55021 0.12907,-0.71936l-0.00001,0.00001l0,0.00001l0,-0.00001zm-0.1721,-0.63735q-0.34076,-0.21187 -0.29773,-0.59291q0.04131,-0.38104 0.29773,-0.25459q0.8123,0.34003 0.59891,0.72106q-0.2134,0.38104 -0.59891,0.12645l0,0.00001l0,-0.00001zm2.13403,-1.9069q-0.2547,0.42375 -0.55415,0q-0.34076,-0.42375 -0.2134,-1.05939q-0.1721,0.29731 1.15306,0.63563q-0.12907,0.38104 -0.42681,0.08544q-0.29945,-0.21187 -0.34247,-0.50919q-0.08605,0.29731 0.04302,0.55191q0.12907,0.2956 0.34247,0.2956l-0.00172,0l-0.00001,0l0.00001,0zm-2.30441,-2.33066q0.42681,-0.17087 1.32344,0.63563q0,0.17087 -0.08605,0.12645q-0.08605,0 -0.08605,-0.12645q-0.21168,0.21187 -0.55415,0.12645q-0.29773,-0.08544 -0.42681,0.08544q-0.12735,-0.04272 -0.12735,-0.29731q0,-0.2956 0.12735,-0.33832q0.04302,-0.17087 -0.17038,-0.21187l-0.00001,0l0.00001,-0.00001zm0.38378,1.9069q0.29945,-0.04272 0.04302,-0.2956q-0.25643,-0.25631 -0.42681,-0.34003q0.46983,-0.29731 0.59718,0.50919q0.12907,0.76208 0.72626,0.33832q-0.55415,0.34003 -0.04302,0.84751q0.89663,0.84751 0.98097,1.05939q0.29945,-0.16917 -0.72454,-1.05939q0.25643,-0.33832 0.68323,0.17087q0.38378,0.42375 0.42681,0.88852q-0.76928,0.29731 -0.98097,-0.04101q-0.51285,-1.01839 -0.72626,-1.23026q-0.04302,0 -0.1721,0.12816q-0.12735,0.08544 -0.21168,0.08544q0.04131,0.25289 0.42681,0.55021q0.34076,0.2956 0.34076,0.71936q-0.29945,-0.12645 -0.68323,-0.63563q-0.38378,-0.50749 -0.68323,-0.63563q0.04302,-0.16917 0.12907,-0.12645q0.08605,0 0.08605,0.12645q0.17038,0.04272 0.29773,-0.08544q0.1721,-0.12645 0.29945,-0.12645q-0.64193,-1.05939 -1.36646,-1.05939q0,0.50919 0.38378,0.63563q-0.12735,0.29731 -0.59718,0q-0.42681,-0.25459 -0.55588,0.21187q-0.59718,-1.69503 0.76928,-0.21187q-0.34247,-0.67835 -0.93966,-1.05939q0.1721,0.12816 0.93966,0.12816q0.64021,0.04101 0.98097,0.50749l0.00001,-0.00001l0,0.00001l-0.00002,0zm-1.75025,-3.60192q0.2134,0.04272 0.3855,0.2956q0.2134,0.29731 0.38378,0.34003q0,0.17087 -0.08605,0.12645q-0.08605,-0.04272 -0.08605,-0.12645q-0.34076,0.25459 -0.38378,0q-0.17038,-0.04272 -0.2134,0.21187q-0.12735,-0.04272 -0.12735,-0.12816q0.04302,-0.08544 0.12735,-0.08544q-0.12735,-0.12645 0,-0.63392l0,-0.00001l0,0.00002zm0,4.66131q0.93966,1.31569 0.93966,1.05939q-0.12735,0.25631 -0.34076,0.08544q-0.1721,-0.12645 -0.2134,0.12645q-0.2134,-0.59291 -0.98097,-0.84751q-0.1721,-0.12645 0.08433,-0.12645q0.46983,0.04272 0.51113,-0.29731l0.00001,0l-0.00001,0l0.00001,-0.00001zm-1.53684,0.21187q-0.17038,0.42375 0.55588,0.84751q-0.12907,-0.08544 0.04302,-0.50749q0.12735,-0.34003 0.34076,0.50749q-0.72626,0.25631 -0.89491,0.04272q-0.12907,-0.16917 -0.04474,-0.88852l0,-0.00171l-0.00001,-0.00001l-0.00001,0.00001l0.00001,0zm0.76928,-0.84751q-0.59718,0.21187 -0.68323,0.08544q0.1721,0.21187 -0.29945,-0.72106q0.04302,-0.46647 0.42681,-0.38104q0.3855,0.12645 0.34247,0.59291q-0.08605,-0.04272 -0.25643,-0.25459q-0.1721,-0.16917 -0.29945,-0.16917q0.25815,0.55191 0.76928,0.84751l0.00001,-0.00001l-0.00001,0l0,0.00001zm1.92062,3.60363q-0.29945,-0.17087 -0.68323,-0.63563q-0.38378,-0.50919 -0.68323,-0.63735q1.75025,0.34003 1.92234,0.42547q-0.08605,0.42375 -0.55588,0.33832q-0.25643,-0.08544 0,0.50919l0.00001,0l-0.00001,0zm6.53116,0.42375q-0.12735,-0.17087 -0.59718,-0.59463q-0.42681,-0.33832 -0.55588,-0.67664q0.25815,0.71936 0.1721,0.71936q-0.34247,0.08544 -0.55588,0.55191q-0.04302,0 -0.2134,-0.29731q-0.12735,-0.12645 -0.17038,0.08544q-0.12735,-0.08544 -0.42681,-0.59463q-0.25643,-0.33832 -0.55588,-0.46477q0.1721,-0.25631 0.55588,0.08544q0.51285,0.55021 0.59718,0.55021q-0.08605,-1.44214 1.57987,0q0.08605,-0.63563 0.1721,-0.63563q0.08433,0 0.76756,0.67664q-0.04302,0.17087 -0.46983,0.04272q-0.38378,-0.08544 -0.29945,0.55191l0,-0.00001l0,0.00001l0,-0.00001zm-14.59915,-7.67203q-0.25643,0.33832 -0.68323,-0.12645q-0.38378,-0.42375 -0.08605,-0.72106q-0.12735,-0.08544 0.51285,0.29731q0.29945,0.16917 0.25643,0.55021l0,-0.00001zm-0.04302,3.60192q-0.04302,0.21187 -0.42681,0.08544q-0.34076,-0.12645 -0.34076,0.33832q-0.29945,-0.21187 -0.08605,-0.93124q0.2134,-0.72106 0.85361,0.08544q0.04302,0.16917 -0.1721,0.21017q-0.04131,0.17087 0.1721,0.21187l0.00001,-0.00001zm-5.16469,-36.15254q-0.04302,0.17087 0.17038,0.17087q-0.04302,0.2956 -0.29945,0.08373q-0.29773,-0.25459 -0.38378,-0.25459q-0.12735,-0.93295 0.34247,-0.76208q0,-0.17087 0.08605,-0.12816q0.08433,0.04272 0.08433,0.12816q0.08605,0 0.17038,-0.38275q0.38378,0.59463 -0.1721,1.14482l0.00172,0l0.00001,0l-0.00001,0.00001zm-0.34247,1.52586q-0.12735,-0.04272 -0.12735,-0.12645q0.04302,-0.04272 0.12735,-0.04272q-0.2134,-0.38104 0,-0.42375q0.04302,-0.17087 -0.17038,-0.17087q0,-0.16917 0.08605,-0.12645q0.08605,0.04272 0.08605,0.12816q0.29773,-0.25631 0.34076,0q0.12735,0.04101 0.17038,-0.17087q0.2134,0.12816 -0.12735,0.38275q-0.3855,0.38104 -0.3855,0.55021l0,-0.00001l-0.00001,-0.00001zm-6.06132,-0.21187q-0.1721,0 -0.38378,0.33832q-0.1721,0.29731 -0.46983,0.21187q0.29945,-0.42375 0,-1.1004q-0.34076,-0.89023 -0.34076,-0.97567q0.64021,-0.25459 0.34076,-0.97395q0.12735,-0.25631 0.1721,0.12645q0.08433,0.55021 0.34076,0.46647q-0.29945,0.08544 0,0.71936q0.38378,0.8065 0.34076,1.18754l-0.00001,0l0,0.00001zm-3.37314,-6.52721q0.04302,-0.17087 -0.17038,-0.21187q0.04302,-0.12645 0.12907,-0.08544q0.04302,0 0.04302,0.12816q0.12735,-0.12816 0.51113,0q0,0.16917 -0.25643,0.38104q-0.2134,0.17087 -0.2547,0.38104q-0.12907,-0.04101 -0.08605,-0.12645q0,-0.08544 0.08605,-0.08544q-0.2134,-0.33832 0,-0.38104l-0.00172,0l0,0.00001l0.00001,-0.00001zm2.17877,1.73774q-0.42681,-0.04272 -0.64021,0.50919q-0.21513,0.59291 -0.51285,0.63563q0,0.12645 0.25643,0.2956q0.25643,0.17087 0.2134,-0.12645q0.29773,0.04272 0.04302,0.33832q-0.29945,0.34003 -0.51285,0.25631q0,-0.08544 0.29773,-0.21359q0,-0.16917 -0.29773,-0.25459q-0.34247,-0.12645 -0.34247,-0.2956q-0.59718,0.55021 -0.68151,0.55021q-0.08605,0 -0.1721,-0.55021q0.42681,0.04272 1.36646,-0.21187q-0.2134,-0.25631 -0.25643,-0.63563q-0.08605,-0.38275 -0.25643,-0.67835q-0.76756,0.84751 -0.72454,0.84751q0.04302,0 -0.12907,-0.84751l0.46983,0q0.34247,-0.04272 0.55588,0q-0.12907,-0.25459 -0.04302,-0.84751q0.04302,-0.29731 -0.46983,-0.12816q0.38378,-0.50749 0.1721,-1.31399q-0.12907,0 -0.29945,0.21187q-0.12907,0.21187 -0.3855,0.12816q0.29945,-0.17087 0.25815,-0.55191q0,-0.2956 -0.08605,-0.38104q-0.1721,-0.21187 -0.29945,-0.67835q-0.08605,-0.33832 -0.51285,-0.67835q0.12907,-0.16917 0.04302,-0.46647q-0.08605,-0.25289 0.12735,-0.46477q0.12907,0 0.08605,0.08544q0,0.08373 -0.08605,0.08373q0,0.12645 0.51285,0.21187q-0.1721,-0.42375 -0.51285,-0.59291q0.04302,-0.12816 -0.85361,0.38104q-0.04131,-0.17087 0.1721,-0.17087q-0.12907,-0.25289 -0.51285,-0.38104q0.04302,-0.16917 0.12735,-0.12645q0.1721,0.12645 0.2134,0.12645q-0.08605,-0.33832 -0.2134,-0.33832q-0.72454,0.12645 -0.46983,0.12645q1.06701,-0.93124 0.85533,-0.93124q0.29773,0.50749 0.64021,0.59291q0.12735,0.08544 0.04131,0.72106q0.08605,-0.34003 0.2134,-0.29731q0.72626,0.12645 0.46983,0.12645q0,0.17087 -0.17038,0.17087q0.1721,0.16917 0.25643,0.42375q0.04302,0.25289 0.38378,0.33832q0,0.08544 -0.08605,0.21187q-0.08433,0.08544 -0.08433,0.17087q0.25643,-0.12816 0.42681,0.59291q0.25643,0.88852 0.76928,0.97395q-0.1721,0.25459 -0.12907,0.80479q0.04302,0.55191 0.29945,0.34003q0.29773,0.33832 -0.1721,0.38104q0.59891,0.97395 0,1.69503q0.1721,0 0.34247,-0.33832q0.2134,-0.25459 0.46983,-0.21187q-0.29945,0.42375 0.17038,0.55021q0,0.17087 -0.1721,0.08544q-0.12735,-0.04272 -0.16866,0.12645q0.04131,0 0,-0.38104l-0.00002,-0.00001l0,-0.00001l0.00001,0.00002zm-1.83629,3.22088q0,-0.08544 0.1721,-0.25459q0.12735,-0.16917 0.16866,-0.2956q-0.17038,0.04272 -0.34076,0.2956q-0.1721,0.25631 -0.34076,0.25631q-0.12907,0 0.2134,-0.46818q0.34076,-0.42375 0.64021,-0.2956q0.2134,0.04272 -0.04302,0.42375t-0.46983,0.33832l-0.00001,0.00001l0.00001,0.00001l0,-0.00002zm-0.04302,3.09273q0.51285,-0.63392 0.1721,-0.46477q-0.29945,0.21187 -0.51285,0.63563q-0.2134,-0.12645 0.12735,-0.42375q0.38378,-0.33832 0.38378,-0.50919q0.3855,0 0.34247,0.42547q-0.08605,0.42375 -0.51285,0.33832l0,-0.00171l-0.00001,0l0.00001,-0.00001zm-1.6642,-1.94791q0.29773,0.55021 0.51113,-0.38104q0.12907,0.04101 0.08605,0.12645q0,0.08544 -0.08605,0.08544q0.25815,0.25459 -0.04131,0.71936q-0.34247,0.42375 -0.64021,0.04272q0.2134,-0.16917 0.08605,-0.33832q-0.08605,-0.21187 0.08433,-0.25631l0,0.00171l0.00001,0l0,-0.00001zm0.17038,1.73774l-0.04302,0q-0.08605,0.08544 -0.12735,0.17087q0.04302,-0.17087 0.12735,-0.17087l0.04302,-0.04272q-0.1721,-0.55021 -0.1721,-0.33832q0.3442,0.04101 1.32516,-0.17087q-0.2134,0.25631 -0.59891,0.29731q-0.38378,0.04272 -0.55415,0.21187l0,0.04272l0,-0.00001l0,0.00001zm0,-4.95863q0.04302,-0.17087 0.1721,-0.08544q0.16866,0.04272 0.16866,-0.12645q0.29945,0.04272 0,0.2956q-0.29773,0.25631 0,0.29731q0,0.17087 -0.2547,0.38104q-0.2134,0.17087 -0.25815,0.38275q-0.12735,-0.04272 -0.04131,-0.21359q0.04302,-0.16917 -0.12735,-0.16917q-0.12907,-0.97395 0.34076,-0.76208l-0.00001,0l0.00001,0l-0.00001,0.00001zm-0.29945,-1.56858q0,-0.12645 0.2134,-0.12645q0.25815,0 0.25815,0.16917q0.16866,0 0.16866,-0.21187q0.12907,0.42375 -0.51113,1.35671q-0.12907,-0.04272 -0.08605,-0.12816q0,-0.08544 0.08605,-0.08544q-0.12907,-0.21187 -0.08605,-0.55021q0.08605,-0.29731 -0.04302,-0.42375l-0.00001,0zm0.76928,7.67203q-0.1721,0.04101 -0.29945,0.2956q-0.17038,0.25631 -0.34076,0.29731q0.04302,-0.25459 0.17038,-0.21187q-0.1721,-0.34003 -0.34076,-0.38104q0,-0.17087 0.08605,-0.12816q0.08433,0.04272 0.08433,0.12816q0.42681,-0.17087 0.81059,0q-0.12735,0.25289 -0.1721,0l0.00172,0l0.00001,-0.00001l-0.00001,0.00001zm-1.79327,-6.52721q-0.29945,-0.55191 -0.68323,0q-0.68323,0.88852 -0.85361,0.97395q0.12907,0.29731 0.85361,-0.76208q0.25643,0.25459 -0.12735,0.67835q-0.34247,0.38104 -0.72626,0.46477q-0.25643,-0.80309 0.04302,-0.97395q0.81059,-0.50919 0.98097,-0.76378q0,-0.04101 -0.08605,-0.16917q-0.08433,-0.08544 -0.08433,-0.21187q-0.2134,0.04272 -0.46983,0.46647q-0.2134,0.34003 -0.55415,0.29731q0.12735,-0.25631 0.51285,-0.67835q0.38378,-0.38104 0.51113,-0.63563q0.12907,0 0.12907,0.08544q-0.04302,0.08373 -0.12907,0.08373q-0.04302,0.17087 0.04302,0.33832q0.12735,0.12816 0.12735,0.25631q0.85361,-0.59463 0.85361,-1.35671q-0.38378,0 -0.51113,0.38104q-0.25643,-0.12816 0,-0.55191q0.2134,-0.42375 -0.1721,-0.59291q1.32516,-0.55021 0.1721,0.76378q0.51113,-0.34003 0.85361,-0.93295q-0.08605,0.16917 -0.12735,0.93295q0,0.63563 -0.3855,0.97395q0.04302,0.29731 0.25815,0.04272q0.16866,-0.21187 0.2547,-0.42375q0.2134,0.46647 -0.42681,0.63563q-0.59718,0.12645 -0.25643,0.67835l0,0.00001l-0.00001,0l0.00002,-0.00002zm0.1721,1.355q-0.3442,-0.12645 -0.08605,-0.42375q0.17038,-0.25289 0.42681,-0.33832q-0.25815,-0.08544 -0.46983,0.04272q-0.2134,0.12645 -0.2134,0.33832q-0.34247,-0.25459 0,-0.55021q0.34076,-0.29731 0.81059,-0.21187q-0.2134,-0.17087 -0.46983,1.14482l0.00172,-0.00171l0,-0.00001l0,0.00001l-0.00001,0zm-0.04474,2.88257q-0.04131,0.17087 0.1721,0.17087q-0.04302,0.25289 -0.25815,0.08373q-0.34076,-0.29731 -0.42508,-0.25459q-0.12907,-0.97395 0.34076,-0.76208q0.1721,-0.25631 0.68323,0l-0.51285,0.76208l-0.00001,0zm0,1.52586q-0.12735,0.04272 -0.17038,-0.21187q-0.12735,-0.04272 -0.17038,0.21187q-0.1721,-0.08544 -0.08605,-0.38104q0.08605,-0.34003 -0.08605,-0.38104q0.04474,-0.12816 0.25815,-0.12816t0.2547,0.12816q0.1721,0.04101 0.1721,-0.21187q0.12735,0.04101 0.12735,0.12645q-0.04302,0.08544 -0.12735,0.08544q-0.04302,0.16917 0.17038,0.16917q-0.04302,0.12645 -0.1721,0.29731q-0.12735,0.12645 -0.17038,0.2956l-0.00001,-0.00001l0.00001,-0.00001l0.00001,0.00001zm-0.85361,-1.73774q0,0.17087 -0.08605,0.12816q-0.08433,-0.04272 -0.04131,-0.12816q-0.1721,0.04272 -0.38378,0.34003q-0.2134,0.2956 -0.46983,0.25289q0.29945,-0.42375 0.1721,-0.50749q-0.1721,-0.04272 0.16866,-0.46647q-0.38378,0.25459 -0.29773,-0.08544q0.08605,-0.38104 0.29773,-0.2956q0.46983,0.12645 0.1721,0.59291q0.34076,-0.17087 0.51113,-0.59291q0.25643,0 0,0.38104q-0.29773,0.38104 -0.04302,0.38104l-0.00001,0.00001l0.00001,0l0,-0.00002zm-0.51113,1.9069q-0.46983,0 -0.42681,-0.42375q0.08605,-0.46647 -0.04302,-0.50749q0,-0.17087 0.08605,-0.12816q0.08605,0 0.08605,0.12816q0.16866,-0.17087 0.34076,-0.59463q0.38378,0.29731 0.2547,0.67835q0,0.08544 -0.12735,0.38275q-0.12735,0.2956 -0.1721,0.46477l0.00172,0l0.00001,0l0.00001,-0.00001l-0.00002,0zm-0.46983,-2.88086q0.12735,-0.25631 0.51285,-0.63563q0.38378,-0.38275 0.51113,-0.67835q0.2134,0.2956 -0.2134,0.76208q-0.38378,0.42375 -0.81059,0.55191l0.00001,-0.00001l0,0.00001zm0.85361,-1.14482q-0.38378,0.63563 -0.68323,0.59291q-0.2134,-0.04272 -0.1721,-0.59291q0.1721,-0.21187 0.42852,-0.21187q0.2134,0.04272 -0.25643,0.42375q-0.04302,0.08544 0.55588,-0.38104q0.51113,-0.46647 0.12735,0.16917l0.00001,0l-0.00001,0l0.00001,0zm-0.85361,-3.05172q0.1721,-0.33832 0.46983,-0.29731q0.29773,0.04272 0.2134,0.29731q-0.25815,0.80479 -0.55588,0.63563q-0.34076,-0.21187 -0.12735,-0.63563l0.00001,0l-0.00001,0zm-1.15306,-1.52586q0.34247,-0.67835 0.42681,-0.42375q0.04302,0.29731 -0.42681,0.59291q0.04302,0.29731 0.1721,0.08544q0.21168,-0.29731 0.34076,-0.25459q-0.38378,0.29731 -0.51285,0.76378q-0.72626,-1.01839 0.85361,-2.50153q0.2134,0.33832 -0.29773,0.80479q-0.59891,0.50919 -0.55588,0.93295l0,-0.00001l-0.00001,0.00001zm0.51285,1.73774q-0.38378,-0.12645 -0.29945,-0.55021q0.08605,-0.29731 -0.38378,-0.04272q0.12735,-0.29731 0.51285,-0.67835q0.38378,-0.38104 0.51113,-0.63563q-0.29773,1.69503 -0.34076,1.9069l0.00001,0l0,0.00001zm0.12735,0.55021q-0.08605,0.34003 -0.25643,0.29731q-0.2547,-0.08544 -0.38378,0.08544q0,0.16917 0.08605,0.12645q0.08605,-0.04272 0.08605,-0.12645l0.17038,0.25459q0.08605,0.12645 0.12735,-0.04272q0.25643,0.12645 -0.08605,0.42375q-0.42681,0.33832 -0.42681,0.50749q-0.17038,-0.04101 -0.04131,-0.42375q0.08605,-0.33832 -0.25815,-0.33832q0.3855,-0.88852 0,-1.14482q0,-0.04272 0.21513,-0.21187q0.12735,-0.12645 -0.04302,-0.16917q-0.08605,-0.29731 0.25643,0.04272q0.42681,0.46647 0.55415,0.16917q0.12907,-0.12645 0,0.04272q-0.29773,0.46647 0,0.50749l0.00001,-0.00001l0,-0.00001zm-0.51113,2.88257q-0.85533,-0.50749 0.34076,-1.9069q0.12735,0.04272 -0.12735,0.72106q-0.25815,0.55021 0.12735,0.42375q-0.46983,-0.21187 -0.34076,0.76208l0,0.00001zm-0.1721,2.28964q0.51285,0.08544 0.51285,0.16917q0,0.12645 -0.51285,0.76208q-0.17038,-0.04101 -0.04131,-0.46477q0.04131,-0.34003 -0.46983,-0.29731q0.17038,-0.12816 0.46983,-0.59291q0.29773,-0.42375 0.55415,-0.55191q-0.55415,0.25459 -0.59718,0.17087q0,-0.34173 -0.42681,-0.55191q0.04131,0 0.25643,-0.21187q0.08605,-0.08544 -0.08605,-0.17087q0.08605,-0.08373 0.46983,-0.42205q0.29773,-0.25631 0.38378,-0.50919q-0.1721,-0.12645 -0.51285,1.14482q1.15306,-0.12816 0,1.52586l0.00001,0.00001l0,-0.00002zm-1.32344,-12.71609q0.04302,0.04272 0.04302,0.08544q-0.12735,0 -0.04302,-0.08544q-0.08605,-0.12645 -0.17038,-0.08544q-0.12735,0.04272 -0.12735,0.17087q-0.25815,-0.12816 0.12735,-0.38104q0.51285,-0.34003 0.55588,-0.38275q-0.51285,0.42375 -0.55588,-0.21187q0,-0.63563 0.38378,-1.14482q0,-0.04101 -0.08605,-0.16917q-0.08433,-0.08544 -0.08433,-0.21187q-0.64021,0.29731 -1.45079,1.31569q-0.85361,1.05939 -1.40949,1.355q0.68323,-0.93295 2.17705,-2.45881q0,-0.12645 -0.29773,-0.12645q-0.25815,0 -0.1721,-0.46647q-0.29773,-0.2956 0.98269,-0.55021q-0.25643,0.12645 0,0.67835q0.29945,0.50749 0.68323,-0.12816q0.29773,0.12816 0.12735,0.38104q-0.17038,0.29731 -0.38378,0.12816q-0.08605,-0.12816 -0.25643,0.63563q0.51285,-0.34003 0.85361,-0.93295q0.29945,0.34003 -0.25643,0.72106q-0.64021,0.42375 -0.59718,0.80479q0.04302,0.12816 0.46983,0.08544q0.29945,0 -0.12735,0.2956q0.04131,0.29731 0.2547,0.04272q0.1721,-0.21187 0.25815,-0.42375q0.04131,0.17087 -0.89836,1.05939l0.00001,0l0,0.00002l0,-0.00001zm0.1721,13.0117q0,-0.04272 0.04131,-0.08544q0.08605,-0.25289 0.08605,-0.04101l0,0.04272q0,0.84751 -0.85361,0.93124q0.04302,0.04272 0.12735,0.17087q0.04302,0.08544 0.04302,0.21187q0.12907,-0.04272 0.12907,-0.12816q-0.04302,-0.08544 -0.12907,-0.08544q0.04302,-0.08373 0.2134,-0.16917q0.12907,-0.04101 0.12907,-0.21187q0.29773,0.38275 -0.1721,0.8065q-0.64021,0.50749 -0.68323,0.71936q-0.08605,-0.46647 0.04302,-1.65231q0.12907,-1.05939 -0.17038,-1.78046q0.2134,0 0.42681,-0.46647q0.1721,-0.38104 0.42681,-0.08544q-0.42681,-1.01667 -1.06701,-0.25289q-0.98097,1.14482 -1.32344,1.18583l0.38378,-0.50749q0.1721,-0.25631 -0.04131,-0.63563q0.17038,0.16917 0.34076,0.08544q0.1721,-0.04443 0.34076,0.12645q-0.04131,0.16917 0.68323,-1.35671q0.46983,-0.93295 -0.34076,-0.76378q0.38378,-0.2956 0.42681,-0.80309q0.04302,-0.63735 0.08605,-0.72277q-0.12907,-0.16917 -0.21513,-0.33832q-0.08605,-0.21187 -0.12735,-0.25459q-0.12735,-0.12645 -0.64021,0.21187q0.04302,0.21187 0.2134,0.12816q0.29945,-0.12816 0.25643,-0.12816q-0.2134,0.38104 -0.34247,0.38104q0.25815,0 0.29945,0.21359q0.04302,0.25289 -0.29945,0.55021q0.25815,0.42375 0.2134,0.84751q-0.08605,0.38104 0.29945,0.84751q-0.2134,0.04272 -0.76756,0.63563q-0.29945,0.38104 -0.25815,-0.25459q-0.51113,0.17087 -0.68151,0.76378q0.04302,0.21187 0.2134,0.12645q0.1721,-0.12645 0.29945,0.08544q0,0.21187 -0.25815,0.38104q-0.21168,0.17087 -0.2547,0.38104q-0.1721,-0.04101 -0.04302,-0.21187q0.08605,-0.12645 0.2134,-0.16917q0,-0.12645 -0.1721,-0.2956q-0.12735,-0.12816 -0.16866,-0.29731q0.08605,-0.38104 1.02399,-1.31569q-0.04302,-0.12473 -0.04302,-0.67664q0,-0.25459 -0.42681,-0.29731q0,-0.16917 0.25643,-0.38104q0.2134,-0.16917 0.2134,-0.38104q-0.1721,0.08544 -0.38378,0.38104q-0.25815,0.34003 -0.42681,0.38104q0.2134,-0.38104 0.34076,-0.38104q-0.08605,-0.2956 -0.2134,-0.08544q-0.2134,0.34003 -0.29945,0.29731q-0.34076,0 0.12907,-0.33832q0.42681,-0.38104 0.38378,-0.04272q0.08605,-0.04272 0.12907,-0.21187q0.08605,-0.17087 0.2134,-0.17087q-0.12907,-0.42205 -0.51285,-0.38104q0.04302,-0.12645 0.2134,-0.33832q0.12735,-0.17087 0.1721,-0.25459q0.16866,-0.2956 -0.21513,-0.55021q0.51285,-0.04272 0.38378,0q0.12907,-0.04272 -0.04131,-0.59463q-0.1721,0.04272 -0.34247,0.29731q-0.1721,0.25459 -0.34076,0.29731q0.2134,0.59291 0.2134,0.71936q0,0.29731 -0.55588,0.42375q0,-0.08544 0.34247,-0.21187q-0.04302,-0.12645 -0.25815,-0.25289q-0.12735,-0.08544 0.08605,-0.29731q-0.34076,0 -0.2547,0.25459q0.04131,0.2956 -0.08605,0.2956q-0.04302,0.25631 0.2134,0.34003q0.29945,0.08544 0.29945,0.25459q0,-0.12816 -0.85361,0.93124q0,0.08544 0.08605,0.17087q0.08433,0.12645 0.08433,0.21187q0.12735,0 0.08605,-0.08544q0,-0.08544 -0.08605,-0.08544q-0.12907,0.38275 0.98097,0.38275q0.04302,0.42375 -0.29773,0.55021q0.04302,0.29731 0.17038,0.08544q0.2134,-0.29731 0.29945,-0.25631q0.12735,-0.04101 0,0.12816q-0.1721,0.21187 -0.3855,0.38275q-0.51113,0.42375 -0.08605,-0.50919q-0.17038,-0.04272 -0.34076,0.08544q-0.17038,0.12645 -0.34076,0.08544q-0.29945,0.46477 -0.34247,-0.76378q-0.34076,0.12645 -0.34076,0.59291q-0.29945,-0.04272 -0.1721,-0.46647q0.12907,-0.38104 0.3442,-0.29731q-0.12907,-0.42375 -0.51285,-0.38104q0,0.04272 0.34076,0.17087q-0.2134,0.33832 -0.46983,0l-0.38378,-0.59463q0.04302,-0.12645 0.12735,-0.08544q0.04302,0 0.04302,0.08544q1.11004,-0.63563 0.85361,-1.69503q-0.12735,-0.04272 -0.1721,0.17087q-0.16866,-0.17087 -0.33903,-0.55191q0.04131,0 -0.46983,0.76208q-0.25815,0 -0.08605,-0.25459q0.2134,-0.2956 -0.08605,-0.33832q0.08605,-0.29731 0.34247,-0.29731q0.29945,0 0.46983,-0.25459q-0.1721,-0.25289 -0.46983,-0.04101q-0.46983,0.38104 -0.68323,0.42375q0.2134,-0.25631 -0.04302,-0.38275q-0.25643,-0.08544 -0.29773,0q-0.29945,-0.12645 0.04131,-0.33832l0.25815,-0.12645q0.16866,-0.08544 0.21168,-0.12816q-0.08605,-0.25459 -0.42681,0.04272q-0.34076,0.25459 -0.42681,0.55021q-0.34076,-0.04101 0,-0.50749q0.08605,-0.17087 0,-0.08544q-0.08605,0 -0.1721,-0.21187q-0.04131,-0.16917 -0.16866,-0.16917q0.12735,-0.46647 0.38378,-0.25459l0.46983,0.46647q-0.55588,-1.05939 -0.68323,-0.59291q-0.34247,-0.55191 0.1721,-0.46647q0.55415,0.04272 0.68151,0.46647q0.1721,0 0.38378,-0.34003q0.1721,-0.2956 0.46983,-0.21187q0.04302,0.50919 0.38378,0.25631q0.55588,-0.38275 0.93966,-0.25631q0.1721,0.17087 0.08605,0.38275q-0.04302,0.16917 0.08605,0.38104q0.12735,-0.04272 0.12735,-0.12816q-0.04302,-0.08544 -0.12907,-0.08544q0.04302,-0.08373 0.2134,-0.16745q0.12907,-0.04272 0.12907,-0.21187q0,-0.55191 0.85361,0.21187q-0.34247,-0.04272 -0.72626,0.50749q-0.46983,0.63563 0.04302,1.01667q0.04302,0 0.1721,-0.12645q0.08433,-0.04272 0.16866,-0.04272q0,-0.16917 -0.2134,-0.33832q-0.2134,-0.17087 -0.12735,-0.46647q0.29945,0.25459 0.34076,0q0.08605,0.04272 0.1721,0.42375q0.04131,-0.08544 0.12735,-0.59291q0.04302,-0.38104 0.55415,-0.38104q0,0.16917 -0.17038,0.21187q0.12907,0.21187 0.51285,0.38104q-0.04302,0.71936 -0.68323,0.76208q0,0.08544 0.1721,0.17087q0.16866,0.04101 0.16866,0.21187l0.8123,-0.8065q0.42681,-0.38104 0.17038,-0.71936q0.04302,-0.12816 0.2134,-0.17087q0.12735,-0.08544 0.12735,-0.21187q-0.17038,-0.2956 0,3.98467q0.12907,2.83985 -0.68151,4.23755q0.12735,0 0.2547,-0.25289q0.1721,-0.21187 0.42681,-0.12816q-0.29773,-0.38104 0.04302,-0.55021q0.55588,-0.34003 0.42681,-0.21187q0,0.04272 -0.59718,1.44042q-0.42681,0.89023 0.29945,0.38104l0.00001,-0.00002l0.00001,0.00002l0.00002,0.00006zm-1.53684,-0.88852q0.2134,0.33832 -0.1721,0.80309q-0.46811,0.46818 -0.34076,0.72106q-0.12735,-0.04101 -0.34076,-0.16917q-0.2134,-0.17087 -0.34247,-0.21187q0.04302,-0.76208 1.19609,-1.14482l0,0.00171l0.00001,0.00001l-0.00001,-0.00001zm0.51113,-1.31569q0.51285,-0.25289 0.08605,0.55191q-0.46983,0.80479 -0.93966,0.76208q0.04302,-0.12645 0.38378,-0.33832q0.25815,-0.17087 0.29945,-0.42375q-0.89491,0.63563 -0.76756,0.55021q0.89491,-0.80309 0.93794,-1.10211l0.00001,-0.00001l0.00001,0l-0.00002,0zm-1.36475,4.19656q0,0.34003 -0.29945,0.12816q-0.25643,-0.21359 -0.2134,0.04101q-0.2134,-0.16917 0,-0.76208q-0.72626,-0.50919 -0.68323,0q-0.1721,-0.12816 0.08605,-0.08544q0.38378,0 0.42681,-0.2956q0.08605,0 0.17038,0.38104q0.29945,-0.21187 0.34076,0q1.23911,-0.93295 1.02571,-0.93295q-0.2134,-0.25459 -0.08605,-0.38104q0.2134,-0.29731 0.25643,-0.38104q0.08605,-0.21187 0.12735,-0.17087q0.04302,0.04272 0,0.17087q-0.04302,0.46647 -0.29773,0.38104q0.04131,0.17087 0.17038,0.08544q0.12735,-0.12816 0.1721,-0.29731q0.12563,0.21187 -0.8123,1.05939q-0.81059,0.80479 -0.38378,1.05939l0.00001,0l-0.00002,0l-0.00002,-0.00001zm-0.98269,-4.23755q-0.04302,0 -0.08605,0.08544q0,-0.04443 0.04302,-0.12816q-0.25643,-0.29731 -0.55415,0.08544q-0.34247,0.38104 -0.25815,0.71936l0.25815,0.17087q0,-0.04272 -0.25815,0.42205q-0.21168,-0.16917 -0.08433,-0.93124q0.1721,-0.8065 -0.08605,-0.97395q0.04474,-0.12816 0.1721,-0.29731q0.12735,-0.12816 0.1721,-0.29731q0.85189,0.46647 0.63849,1.10211l0.04302,0.04272l-0.00001,-0.00001l0,0.00001l0.00001,-0.00001zm-1.02399,1.73774q0.08605,-0.29731 0.51113,-0.67835q0.3855,-0.38104 0.51285,-0.67835q0.2134,0.12645 -0.51285,0.97395q0.3855,-0.08544 0.29945,0.04272q-0.12735,0.34003 0.1721,0.72106q-0.29945,0.21187 -0.3442,0.17087q-0.16866,0.04101 -0.29773,-0.29902q-0.08605,-0.33832 -0.34076,-0.25289l0,-0.00001l0.00001,0l0,0.00002zm0.04302,-11.48583q0.08605,-0.34003 0.34076,-0.42375q0.29945,-0.08544 0.34076,-0.12816q0.2134,0.12816 -0.12735,0.38104q-0.38378,0.38275 -0.38378,0.55191q-0.12907,-0.04272 -0.08605,-0.21187q0.08605,-0.12816 -0.08605,-0.17087l0.00172,0.00171l-0.00001,0.00001l0.00001,0l-0.00001,-0.00002zm3.71389,-2.07777q0.2134,0.29731 -0.25815,0.72106q-0.55415,0.55021 -0.59718,0.80479q0.04302,0.21187 0.2134,0.08544q0.1721,-0.12816 0.29945,0.08544q-1.02399,-0.38275 -1.83458,0.59291q0.2134,-0.42375 0.29773,-0.38275q0,-0.16917 -0.42681,0.08544q-0.25643,0.12645 0.12907,-0.29731q-0.34247,-0.04101 -0.59891,0.38275q-0.25643,0.42375 -0.59718,0.38104q0.04302,-0.21187 0.34076,-0.46647q0.25815,-0.25459 0.34247,-0.46647q0.93966,0.38104 1.40777,0q0.12907,-0.08544 1.28214,-1.52586l0,-0.00001l0.00001,0l0.00001,0zm-1.02571,0.55191q-0.25643,-0.04272 0.1721,-0.34003q0.42508,-0.33832 0.51113,-0.04272l0,-0.38104q0.42681,0.29731 -0.51285,0.97395q0.25815,-0.42205 0.34247,-0.38104q-0.04302,-0.2956 -0.1721,-0.08544q-0.21168,0.29731 -0.34076,0.25631l0,-0.00001l0.00001,0l0,0.00002zm-3.37314,0.93124q0.21513,0.12816 -0.08433,0.42375q-0.42681,0.38275 -0.42681,0.55191q0.68323,-0.55191 1.70722,-1.78046q1.15306,-1.31399 1.70722,-1.82318q-0.12735,-0.25289 -0.42681,0.12816q-0.29773,0.50749 -0.59718,0.42375q0.2134,-0.17087 0.25643,-0.42375q0.04302,-0.29731 0.25643,-0.55191q0.51113,0.25631 0.68323,0.04272q0.08605,0.29731 -0.89663,1.31569q-0.89663,0.97395 -0.46983,1.355q-0.55588,-0.25459 -1.28042,0.80479q-0.64021,0.97395 -1.45251,0.29731q-0.08605,0.2956 1.02571,-0.76378l-0.00172,0l-0.00001,0l0.00001,0.00001l0,-0.00001zm1.36646,-2.66898q-0.04131,0.97395 -2.34743,2.88086q0.29945,-0.50749 1.19609,-1.44042q0.81059,-0.84751 1.15306,-1.44042l-0.00172,0l0,-0.00001zm-0.68151,1.73774q-0.25815,-0.04272 0.17038,-0.38275q0.38378,-0.2956 0.51113,0l0,-0.38104q0.25815,0.38104 -0.38378,0.97395q-0.64021,0.59463 -0.98097,0.34173q0.12735,-0.25631 0.51113,-0.34173q0.46983,-0.08373 0.68323,-0.42205q-0.04302,-0.29731 -0.2134,-0.04272q-0.1721,0.2956 -0.29773,0.25459l0.00001,0l0.00001,0l-0.00001,0.00001zm-0.64193,-1.73774q0.08605,0.04101 0,-0.55191q1.11004,0.50919 1.32516,0.17087q0.42508,0.21017 -0.51285,0.76208q-0.08605,-0.12816 0,-0.55191q-0.2134,0.12816 -0.51285,0.08544q-0.25643,-0.04272 -0.29945,0.08544l-0.00001,-0.00001zm8.0267,6.95097q0.12735,-0.21187 0.08605,0.04101q0,0.46647 0.2547,0.50919q-1.02399,0.93295 -0.85361,0.97395q-0.1721,-0.16917 -0.08605,-0.38104q0.12907,-0.16917 -0.08605,-0.21187q0.47155,-0.21187 0.68495,-0.93124l0.00001,0zm0.17038,-0.97395q-0.34076,-0.17087 -0.64021,0.55021q0.04302,-0.12816 0.38378,0.04101q0.25643,0.12816 -0.38378,0.38275q-0.25643,-0.76378 -0.04302,-0.93295q0.12907,-0.12816 0.68323,-0.04272l0,0.00171l0,-0.00001zm1.06701,-5.34138q-0.1721,0.04101 -0.1721,-0.21187q-0.16866,-0.04272 -0.16866,0.21187q-0.1721,-0.08544 -0.08605,-0.46647q0.12735,-0.34003 -0.25643,-0.29731q0.1721,-0.33832 0.76928,-0.12645q0.55415,0.21187 -0.08605,0.88852l0,0.00171l0.00001,0zm-0.38378,6.10345q-0.1721,-0.55191 -0.04302,-0.67835q-0.2134,0.16917 0.55415,-0.25631q0.3855,0 0.29945,0.38275q-0.08605,0.42375 -0.46983,0.38104q0.04302,-0.12645 0.1721,-0.2956q0.17038,-0.12816 0.17038,-0.29731q-0.42681,0.25459 -0.68323,0.76378l0,0.00001l0,-0.00001zm0.85361,-4.5793q-0.2134,-0.16917 -0.51285,1.14482q-0.12735,-0.08544 -0.08605,-0.25289q0.04302,-0.25631 -0.04131,-0.50919q0.12735,-0.21187 0.38378,-0.25459q0.2134,-0.04272 0.25643,-0.12645l0,-0.00171l-0.00001,-0.00001l0.00001,0.00001l0,0.00001zm2.73121,-2.28794q0.08605,-0.12645 -0.2134,0.50919q-0.12735,0.2956 -0.46811,0.25459q-0.25815,-0.25631 0.08605,-0.67835q0.38206,-0.38104 0.59546,-0.08544l0.00001,0l-0.00001,0l0,0.00001zm42.17629,-0.16917q-0.08605,0 -0.59718,-0.12645q-0.51113,-0.12816 -0.81059,-0.12816q-1.06701,-0.12645 -0.98097,0.59291q0.04131,-0.16917 0.17038,-0.08544q0.12735,0.12816 0.17038,0.29731q-0.29945,0.08544 -0.29945,0.29731q0,0.17087 0.29945,-0.08544q0.04302,0.29731 -0.2134,0.50919q-0.25643,0.25459 -0.29945,0.42375q0.51285,0.12816 0.29945,0.59291q-0.29945,0.67835 -0.29945,0.76378q0.1721,1.31399 -0.17038,1.52586q0.08605,-2.54254 -0.1721,-2.88257q-0.04131,0 0.29945,-0.55021l-0.04131,-0.08544l-0.25815,-0.50919l0.25815,0.50919l0.08605,0.08544l-0.04474,0q-0.80886,-1.52586 -0.17038,-1.23026l-3.84125,-0.16917q-0.64021,0 -4.0994,-0.17087q0.21513,-8.38969 0.21513,-9.11075q-0.42852,-0.21187 -0.55588,-0.63563q0.42681,0 0.55588,-0.42375q0,-0.04272 -0.29945,-0.84751q-0.2134,-0.59463 -0.46983,-0.21187q0.2134,0.04101 0.29945,0.21187q0.08605,0.16917 -0.08605,0.21187q-0.04302,-0.17087 -0.1721,-0.34003q-0.16866,-0.16917 -0.21168,-0.2956l0.76756,-0.63563q-0.25643,-6.69807 0.42681,-9.7481q-5.93397,-0.89023 -18.31133,-1.14482q-0.3442,3.34904 -0.3855,8.05308q-0.04302,6.99197 -0.04302,7.41573q0,0.08544 -0.12735,0.67835q-0.12907,0.63563 -0.12907,1.05939q-0.12735,1.31569 0.59891,1.18754q-0.1721,0 -0.08605,-0.17087q0.12735,-0.16745 0.29945,-0.21017q0.08605,0.33832 0.29773,0.33832q0.1721,0 -0.08605,-0.33832q0.29945,-0.08544 0.51285,0.25459q0.25643,0.33832 0.42681,0.38104q0.12907,-0.67835 0.59891,-0.42375q0.68151,0.42375 0.76756,0.42375q0.1721,-0.04272 0.46983,-0.12816q0.29945,-0.08544 0.42681,-0.08544q0.42681,0 0.64021,0.42547q-2.56083,-0.12816 -2.90331,0.21187q0,0.04272 -0.55415,-0.42375q0,0.04272 -0.08605,0.08544l-0.51113,0.2956q0.34076,-0.17087 0.51113,-0.29731q0.08605,-0.12645 0.04302,-0.08544l0.04302,0q-1.53684,1.0611 -1.23911,0.25631q-0.51113,0.63563 -0.2134,3.64464q-0.89491,-0.17087 -2.73121,0.04272q-2.22008,0.25459 -3.07369,0.25459l0.08605,-0.21359q0.04131,-0.16917 0.08605,-0.16917q-0.42852,-0.12645 -6.4038,0.34003q-0.34247,-0.38275 -0.3855,-0.38275q-1.8776,-0.33832 -2.47478,0q-0.3855,0.17087 0.04131,0.38275q0.29945,0.12645 -0.2134,0.16917q-0.12735,0.04272 -0.08605,-0.29731q0,-0.2956 0.08605,-0.25459q-0.42681,-0.25289 -0.93794,0.21187q-0.55588,0.55191 -0.59891,0.55191q0.12907,-0.21187 0.08605,-0.38104q-0.04302,-0.21187 0.08605,-0.38275q-0.98097,0.08544 -1.19609,-0.04101q0.04302,0 -0.1721,1.18583q-0.42508,0.04272 -1.4921,1.48314q0.08605,-1.355 0,-1.69503q0.17038,0.17087 0.34076,0.08544q0.1721,-0.08544 0.34247,0.08544q0,-0.55191 0.29773,-0.59463q0.46983,-0.08544 0.51285,-0.17087q-0.1721,-0.04101 0,-0.37933q-0.72626,0.2956 -1.92062,0.08544q-1.15306,-0.17087 -1.96365,0.16745q-0.08605,0.38275 0,0.93295q0.04131,0.42375 -0.1721,0.72106q-0.08605,-0.17087 -0.08605,-0.50919q0.04474,-0.42375 -0.04131,-0.80479q0.25643,-0.17087 0.29945,-0.34003q-0.12907,0.04272 -0.29945,0.12816q-0.1721,-0.46647 -0.81059,-0.25459q-0.64021,0.21187 -0.72626,-0.12645q-0.25643,0.2956 0.04302,0.46647q0.42681,0.25289 0.29945,0.67664q-0.51285,-0.08544 -0.51285,-0.21187q0.34076,-0.08544 0.34076,-0.16917q-0.81059,-0.21187 -1.36475,0q0.17038,-0.21187 0.08605,-0.38104q-0.04474,-0.21187 0.08433,-0.38104q-0.29945,-0.12816 -0.29945,-0.21187q-0.34076,-0.08544 -0.51285,0.33832q-0.12735,0.42375 -0.34076,0.42375q-0.12735,-0.25459 0.1721,-0.50919q0.21168,-0.16917 0,-0.25289q-0.04474,0.25289 -0.29945,0.42375q-0.34247,0.21187 -0.3855,0.33832q0.08605,0.08544 0.08605,0.25459q0,0.17087 0.25643,0.33832q-0.46983,0.12816 -0.51285,0.63563l0,0.89023q0.2134,-0.16917 0.2134,-0.33832q0,-0.17087 0.12907,-0.25459q0.12735,0.29731 0.42681,0.42375l0.38378,0.17087q-0.12907,0 -0.25643,0.16917t-0.25643,0.21187q-0.08605,-0.42375 -0.46983,-0.38275q-1.62117,3.2636 -1.40777,6.27261q0.46983,0.08544 0.46983,0.34003q0,0.50919 0.04131,0.63563q-0.51113,0.33832 -0.51113,0.76208q0.2134,0.12816 0.55415,0.63735q0.25815,0.38104 0.46983,0.33832q0.55588,3.5182 0.46983,3.43448q0.12735,0.16745 0.34076,0.08373q0.12907,-0.04272 0.1721,0.12645q-0.04302,-0.21187 -0.1721,0.84751q-0.08605,0.67835 0.51285,0.67835q-0.25643,0.38104 -0.34076,1.52586q0.76756,0.72106 2.34743,0.84751q1.62117,0.17087 2.17705,-0.63563q0.2134,0.63563 -0.1721,0.55191q0.08605,-0.29731 0.21513,-0.04272q0.2134,0.2956 0.29773,0.25459q0,-0.42375 0.51285,-0.76378q0,0.12816 -0.04302,0.29731q-0.04302,0.16917 -0.08605,0.21187q0,0.16917 0.29945,0.25459q0.64021,-0.17087 2.43348,-0.04272q1.6229,0.08544 2.4765,-0.29731q0.29773,0.38104 1.40777,0.21187q1.49554,-0.21187 2.43348,0q0.1721,-0.50749 0,-0.97395q0.2134,0.33832 0.51285,-0.04272q0.25643,-0.38104 0.34076,-0.12816q-1.02399,0.21187 -0.42681,0.93295q0.59891,0.67835 1.11004,-0.17087q-0.12735,-0.12473 -0.08605,-0.42205q0.08605,-0.34003 -0.08433,-0.55191q0.1721,0.17087 0.46983,0.08544q0.25643,-0.04272 0.38378,0.12645q-0.72626,0.59463 -0.46983,0.8065q0.1721,0.16917 1.15306,0.12645q3.97032,-0.12645 4.01335,-0.17087q-0.08605,-0.08373 0.04131,-0.33832q0.08605,-0.25289 0,-0.42375q-0.12735,-0.08544 -0.17038,-0.16917l0.1721,0.17087q0.08433,0.04101 0.2547,0.08544q0.1721,0.04101 0.2134,0.12473q-0.34076,0.17087 -0.51113,0.55191q1.79155,0.76208 2.73121,-0.34003q-0.2134,-0.08544 -0.08605,-0.25289q0.08605,-0.21187 -0.08605,-0.34003q0.1721,0.17087 0.47155,0.08544q0.25643,-0.04272 0.34076,0.12645q-0.1721,0.12816 -0.51285,0.46647l-0.46811,0.46647q-0.1721,0 1.40777,0.12645q0,5.17221 0.34247,7.75747q-0.3855,0.08544 -0.34247,0.67664q0.04302,0.55191 0.34247,1.01839q0.08605,-0.21187 -0.04302,8.43411q0,0.04272 -0.2134,-0.08544q-0.1721,-0.08544 -0.1721,-0.12645q-0.12735,0.55021 0.34247,8.05308q-0.38378,0.42375 -0.38378,0.50749q-0.34247,2.33236 0,3.09444q0.17038,0.46647 0.38378,-0.08544q0.12735,-0.38104 0.1721,0.29731q0,0.12816 -0.29945,0.12816q-0.34247,-0.04272 -0.29945,-0.12816q-0.2134,0.55191 0.25643,1.14482q0.51113,0.72106 0.51113,0.76208q-0.17038,-0.21187 -0.38378,-0.12645q-0.17038,0.08544 -0.38378,-0.08544q0.12735,1.23026 0,1.48485q-0.04302,-0.04272 1.15306,0.21187q0.08605,0.55021 1.53684,1.9069q-1.36646,-0.12816 -1.75025,0q0.17038,-0.21187 0.12735,-0.42375q-0.08605,-0.21187 0.08605,-0.42375q-0.55588,0 -0.59891,-0.42375q-0.12735,-0.59463 -0.17038,-0.63563q-0.04302,0.25289 -0.38378,0q0.25643,0.93124 0.08605,2.41438q-0.1721,1.44214 0.12735,2.46052q0.42681,0.08373 0.98097,0q0.3855,-0.04443 0.72626,0.21017q-0.2134,0.12816 -0.51113,0.12816q-0.46983,-0.04272 -0.85533,0.08544q-0.12735,-0.34173 -0.34076,-0.42547l0.1721,0.42375q-0.47155,0.17087 -0.25815,0.97395q0.1721,0.76378 -0.17038,0.89194q0.29945,0.33832 0.51285,-0.04272q0.25643,-0.50919 0.64021,-0.34003q-0.04302,0.59463 -0.1721,0.59463q-0.12735,-0.38275 -0.21168,-0.42375q-0.1721,1.01667 0,1.69503q-0.1721,-0.17087 -0.3855,-0.08544q-0.17038,0.08544 -0.38378,-0.12645q-0.08605,0.42375 -0.1721,0.42375q-0.08433,0.42375 0.30117,0.63563q0.42681,0.17087 0.46811,0.42375q-0.2547,0.17087 -0.51113,-0.21187q-0.2134,-0.29731 -0.25815,0q0.21513,0.04272 0.3855,0.38104q0.2134,0.38104 0.34247,0.46647q0.08605,-0.08544 0.29773,-0.12645q0.1721,0 0.29945,-0.29731q0.12735,0.59291 0.64021,0.63563l0.46983,0q0.29773,0 0.42681,0.04272q-0.12907,-0.29731 -0.29945,-0.29731q-0.2134,-0.04272 -0.25643,-0.17087q0.29945,-0.12473 0.42681,-0.55021l0.12907,-0.46477q0.04302,0.12645 0.2134,0.2956q0.12735,0.17087 0.1721,0.34003q-0.3855,0.12645 -0.3855,0.63563q3.28709,1.99234 6.36077,1.69503q0.04302,-0.55021 0.29773,-0.55021q0.51285,0 0.68323,-0.08544q0.34247,0.67835 0.72626,0.63563q0.12735,-0.25459 0.64021,-0.67835q0.38378,-0.33832 0.34076,-0.59291q3.54524,-0.67835 3.45919,-0.59291q0.17038,-0.17087 0.12735,-0.38275q-0.04302,-0.21187 0.08605,-0.25459q-0.1721,0.04272 0.85361,0.21359q0.68323,0.12645 0.68323,-0.63735q0.38378,0.29731 1.53684,0.42375q0.72454,-0.97395 0.89491,-2.92358q0.12907,-2.07607 -0.68151,-2.75441q0.12735,-0.08544 0.38378,0.2956q0.1721,0.21187 0.2134,-0.08544q0.42681,0.08544 0.2134,-0.63392q-0.42681,0 -0.76928,-0.63563q0.12907,0 0.29945,0.04101l0.1721,0.08544q0.16866,0.04272 0.29773,-0.33832q-0.1721,-0.8065 -0.08605,-3.09444q0.12907,-1.99234 -0.29773,-3.05172q0.42681,-0.42375 0.2547,-1.78046q-0.2134,-1.86418 -0.04131,-3.09273q-0.46983,-0.21359 -0.93966,0q0.34076,-0.21359 -0.08605,-0.59463q-0.34076,-0.33832 -0.12735,-0.46647q0.12735,0.59291 0.42681,0.72106q0.29945,0.08544 0.55415,-0.17087q0.68323,-0.76208 -0.17038,-1.3977q-0.12735,0.21187 -0.42681,0.12645q-0.34076,-0.08544 -0.55415,0.08544q0.17038,-0.21187 0.08605,-0.59291q-0.04302,-0.34003 0.12735,-0.46647q0.59718,0.93295 0.81059,0.59291q0.1721,-0.25459 0.12735,-1.44042q-0.12735,-5.00135 -0.17038,-5.04406q-0.08605,0.12816 -0.34076,-0.04272q-0.25643,-0.12645 -0.42681,0q-0.08605,0.12816 -0.1721,0.21187q0.08605,-0.12645 0.1721,-0.21187q0.04302,-0.12645 0.08605,-0.33832q0.04131,-0.21187 0.12735,-0.25459q0.17038,0.42375 0.55415,0.63563q0.76928,-2.24693 -0.34076,-3.39005q-0.08605,0.21187 -0.25643,0.08544q-0.2134,-0.12816 -0.34076,0.12645q0.17038,-0.25631 0.08605,-0.59291q-0.04474,-0.34003 0.12735,-0.46647q0.12735,0.25289 0.46811,0.63563q0.34247,0.42375 0.46983,0.63563q0,-0.29731 0.08605,-1.18754q0.04302,-0.88852 0.04302,-1.3977q-0.08605,-1.65401 -1.23911,-2.50153q0.76928,-0.04272 0.76928,0t0.04302,0.29731q0.04131,0.25459 0.08605,0.38104q0.16866,0.42375 0.42508,0.17087q0.08605,-0.08544 -0.29773,-0.59463q-0.34247,-0.42375 -0.08605,-0.67835q-0.08605,0.25459 0.12735,0.50919q0.25815,0.2956 0.25815,-0.08544q0.12735,-0.67835 -0.25815,-1.3977q-0.46811,-0.84751 -0.51113,-0.93295q-0.08605,-0.50919 0.55415,-5.51053q3.67087,-0.25289 4.18372,-0.21187q0.42681,0 3.45919,0.12816q2.47478,0.08544 4.48146,0.08544q0.12735,-0.42547 0.51113,-0.55191q0,0.42375 0.34247,0.55021l0.68323,-0.2956q0.42681,-0.21187 0.17038,-0.46647q-0.04302,0.17087 -0.1721,0.29731q-0.12735,0.08544 -0.16866,-0.08544q0.12735,-0.04272 0.2547,-0.21187q0.12907,-0.12816 0.25815,-0.17087q0.51113,0.76378 0.46811,0.76378q5.33507,-0.2956 7.77027,0.42375q0.72454,-5.93258 0.93794,-18.18221q-2.64688,-0.33832 -6.40208,-0.38104q-5.55019,-0.04272 -5.89267,-0.04272l0.00002,0.00002l0.00002,0.00002l0.00008,-0.00002zm-49.81748,7.79848q-1.53684,1.73774 -1.49382,1.69503q0.76928,-0.80479 1.32516,-0.55021q0,-0.04272 -0.04474,-0.42375q0,-0.34003 0.2134,-0.72106l-0.00001,0l0.00001,-0.00001zm0.1721,7.75747q-0.04302,0.04101 -0.04302,0.08373q0,-0.04272 0.04302,-0.08544l0,0.00171l0,0.00001l0,-0.00001zm0.12735,-15.30135q-0.04302,-0.04272 -0.08605,-0.12816q0.04302,0.08544 0.08605,0.12816zm-1.40949,-1.05939q0,-0.08544 -0.04131,0.04101q0.04131,-0.08544 0.04131,-0.04101zm48.19631,0.76208l-0.04302,-0.04272l0.04302,0.04272zm-50.24429,-0.97395q-0.55588,-0.25631 -0.85361,0.38104q0.59718,0.25459 0.85361,-0.38104zm39.48639,55.13954l0,0.12816q0.04302,0 0.12907,0.04272q-0.04302,-0.08544 -0.12907,-0.17087l0,-0.00001zm-15.40974,0.12816q0.08605,-0.04272 0.12735,-0.12645q-0.08605,0.04101 -0.12735,0.12645zm-0.98097,1.69503q-0.04474,-0.04272 0.04131,0q-0.04302,-0.04272 -0.04302,0l0.00172,0l-0.00001,0zm9.81652,-1.23026q0,-0.04101 -0.38378,0.04443q-0.34076,0.04101 -0.76756,-0.25631q1.79155,1.90861 1.75025,1.90861q-0.85533,-0.97395 -0.59891,-1.69503l0,-0.00171l0.00001,0l-0.00001,0zm-9.00766,-59.20793q0.08605,-0.08544 0.04302,-0.08544l-0.04302,0.08544zm15.71092,58.7859l0,0zm-16.3494,5.21151q0.2547,-0.67664 -0.3855,-1.05939q-0.25643,0.72106 0.38378,1.05939l0.00172,0z"
							id="svg_1"
						/>
					</g>
				</svg>